Recomended:

Harry Potter 6 Half Blood Prince (2009) TS  
http://torrents.thepiratebay.org/5022380/Harry_Potter_6_Half_Blood_Prince_(2009)_TS_.5022380.TPB.torrent


Harry Potter 6 Half Blood Prince ENGLISH CAM

Format                           : AVI
Format/Info                      : Audio Video Interleave
File size                        : 1.36 GiB
Duration                         : 2h 14mn
Overall bit rate                 : 1 457 Kbps
Writing application              : VirtualDubMod 1.5.10.2 (build 2540/release)
Writing library                  : VirtualDubMod build 2540/release

Video
Format                           : MPEG-4 Visual
Format profile                   : Streaming Video[@]L1
Format settings, BVOP            : Yes
Format settings, QPel            : No
Format settings, GMC             : No warppoints
Format settings, Matrix          : Default (H.263)
Codec ID                         : XVID
Codec ID/Hint                    : XviD
Duration                         : 2h 14mn
Bit rate                         : 1 321 Kbps
Width                            : 704 pixels
Height                           : 288 pixels
Display aspect ratio             : 2.444
Frame rate                       : 25.000 fps
Resolution                       : 24 bits
Colorimetry                      : 4:2:0
Scan type                        : Progressive
Bits/(Pixel*Frame)               : 0.261
Stream size                      : 1.24 GiB (91%)
Writing library                  : XviD 1.2.0.dev47 (UTC 2006-11-01)

Audio
Format                           : MPEG Audio
Format version                   : Version 1
Format profile                   : Layer 3
Codec ID                         : 55
Codec ID/Hint                    : MP3
Duration                         : 2h 14mn
Bit rate mode                    : Variable
Bit rate                         : 123 Kbps
Channel(s)                       : 2 channels
Sampling rate                    : 48.0 KHz
Resolution                       : 16 bits
Stream size                      : 118 MiB (8%)
Alignment                        : Aligned on interleaves
Interleave, duration             : 24 ms (0.60 video frame)
Interleave, preload duration     : 521 ms

Download latest maxspeed's torrents:

Zombieland (2009) TS XviD-MAX 
http://torrents.thepiratebay.org/5113596/Zombieland_(2009)_TS_XviD-MAX.5113596.TPB.torrent

G.I. Joe The Rise of Cobra (2009) DVDRip XviD-MAX  
http://torrents.thepiratebay.org/5106041/G.I._Joe_The_Rise_of_Cobra_(2009)_DVDRip_XviD-MAX.5106041.TPB.torrent

Surrogates (2009) TS XviD-MAX  
http://torrents.thepiratebay.org/5104756/Surrogates_(2009)_TS_XviD-MAX.5104756.TPB.torrent

Transformers 2 Revenge Of The Fallen DVDRip XviD-MAX 
http://torrents.thepiratebay.org/5101068/Transformers_2_Revenge_Of_The_Fallen_DVDRip_XviD-MAX.5101068.TPB.torrent

Star Trek (2009) DVDRip XviD-MAX  
http://torrents.thepiratebay.org/5095856/Star_Trek_(2009)_DVDRip_XviD-MAX.5095856.TPB.torrent

District 9 (2009) DVDRip XviD-MAX
 
http://torrents.thepiratebay.org/5078992/District_9_(2009)_DVDRip_XviD-MAX.5078992.TPB.torrent

Gamer (2009) TS XviD-MAX 
http://torrents.thepiratebay.org/5091484/Gamer_(2009)_TS_XviD-MAX.5091484.TPB.torrent

The Final Destination 4 (2009) TS XviD-MAX 
http://torrents.thepiratebay.org/5074197/The_Final_Destination_4_(2009)_TS_XviD-MAX.5074197.TPB.torrent

Bruno (2009) DVDRip-MAX 
http://torrents.thepiratebay.org/5072306/Bruno_(2009)_DVDRip-MAX.5072306.TPB.torrent

Drag Me To Hell (2009) DVDSCR-MAX 
http://torrents.thepiratebay.org/5071723/Drag_Me_To_Hell_(2009)_DVDSCR-MAX.5071723.TPB.torrent

Funny People (2009) TS XviD-MAX  
http://torrents.thepiratebay.org/5056193/Funny_People_(2009)_TS_XviD-MAX.5056193.TPB.torrent

Ice Age 3 Dawn Of The Dinosaurs (2009) DVDRip XviD-MAX 
http://torrents.thepiratebay.org/5045715/Ice_Age_3_Dawn_Of_The_Dinosaurs_(2009)_DVDRip_XviD-MAX.5045715.TPB.torrent

X-Men Origins Wolverine (2009) DVDRip-MAX  
http://torrents.thepiratebay.org/5035544/X-Men_Origins_Wolverine_(2009)_DVDRip-MAX.5035544.TPB.torrent

The Wrestler[2008]DvDrip-MAX  
http://torrents.thepiratebay.org/5022483/The_Wrestler%5B2008%5DDvDrip-MAX.5022483.TPB.torrent

Race To Witch Mountain (2009) DVDRip-MAX  
http://torrents.thepiratebay.org/5022472/Race_To_Witch_Mountain_(2009)_DVDRip-MAX.5022472.TPB.torrent

Push (2009) DVDRip-MAX 
http://torrents.thepiratebay.org/5022471/Push_(2009)_DVDRip-MAX.5022471.TPB.torrent

Knowing (2009) DVDRip-MAX  
http://torrents.thepiratebay.org/5022463/Knowing_(2009)_DVDRip-MAX.5022463.TPB.torrent

The Hangover (2009) DVDSCR-MAX 
http://torrents.thepiratebay.org/5022391/The_Hangover_(2009)_DVDSCR-MAXSPEED.5022391.TPB.torrent

Watchmen (2009) DVDRip-MAX  
http://torrents.thepiratebay.org/5022397/Watchmen_(2009)_DVDRip-MAX.5022397.TPB.torrent

Angels and Demons (2009) DVDRip-MAX  
http://torrents.thepiratebay.org/5022369/Angels_and_Demons_(2009)_DVDRip-MAX.5022369.TPB.torrent

Fast and Furious (2009) DVDRip-MAX  
http://torrents.thepiratebay.org/5022379/Fast_and_Furious_(2009)_DVDRip-MAX.5022379.TPB.torrent

Harry Potter 6 Half Blood Prince (2009) TS-MAX  
http://torrents.thepiratebay.org/5022380/Harry_Potter_6_Half_Blood_Prince_(2009)_TS-MAX.5022380.TPB.torrent

Public Enemies (2009) TS-MAX  
http://torrents.thepiratebay.org/5022388/Public_Enemies_(2009)_TS-MAX.5022388.TPB.torrent

Terminator Salvation (2009) DDC-MAX  
http://torrents.thepiratebay.org/5022390/Terminator_Salvation_(2009)_DDC-MAX.5022390.TPB.torrent

Prototype-Razor1911 FULL PC ISO MAX 
http://torrents.thepiratebay.org/5022387/Prototype-Razor1911_FULL_PC_ISO_MAXSPEED.5022387.TPB.torrent

The Sims 3 - Razor1911 Final MAX 
http://torrents.thepiratebay.org/5022393/The_Sims_3_-_Razor1911_Final_MAXSPEED.5022393.TPB.torrent

More: 
http://thepiratebay.org/user/extremezone/